<svg xmlns="http://www.w3.org/2000/svg" xmlns:xlink="http://www.w3.org/1999/xlink" version="1.1" width="256" height="256" viewBox="0 0 256 256" xml:space="preserve">

<defs>
</defs>
<g style="stroke: none; stroke-width: 0; stroke-dasharray: none; stroke-linecap: butt; stroke-linejoin: miter; stroke-miterlimit: 10; fill: none; fill-rule: nonzero; opacity: 1;" transform="translate(1.4065934065934016 1.4065934065934016) scale(2.81 2.81)" >
	<path d="M 52.808 1.303 c -2.751 -1.725 -6.243 -1.741 -9 -0.025 l -2.707 1.685 c -4.231 2.633 -5.742 8.016 -3.601 12.435 c 0.217 0.448 0.35 0.932 0.393 1.428 c 0.255 2.985 3.515 4.703 6.122 3.228 l 0.008 -0.004 c 0.207 -0.117 0.422 -0.221 0.647 -0.298 c 2.72 -0.933 5.721 -0.615 8.191 0.881 l 3.279 1.986 c 2.154 1.305 3.385 3.715 3.179 6.225 l -1.137 21.004 c -2.698 -1.368 -5.749 -2.139 -8.981 -2.139 c -5.32 0 -10.14 2.101 -13.708 5.503 l 0.012 -0.028 c -3.034 -1.874 -6.609 -2.956 -10.437 -2.956 c -11.244 0 -21.332 9.332 -20.894 20.674 c 0.395 10.229 9.694 18.588 19.919 19.076 c 5.351 0.256 10.266 -1.605 13.979 -4.817 c 17.926 3.121 34.056 -1.449 47.767 -16.367 C 86.04 39.516 72.965 13.943 52.808 1.303 z" style="stroke: none; stroke-width: 1; stroke-dasharray: none; stroke-linecap: butt; stroke-linejoin: miter; stroke-miterlimit: 10; fill: rgb(0,0,0); fill-rule: nonzero; opacity: 1;" transform=" matrix(1 0 0 1 0 0) " stroke-linecap="round" />
</g>
</svg>