<svg xmlns="http://www.w3.org/2000/svg" xmlns:xlink="http://www.w3.org/1999/xlink" version="1.1" width="256" height="256" viewBox="0 0 256 256" xml:space="preserve">

<defs>
</defs>
<g style="stroke: none; stroke-width: 0; stroke-dasharray: none; stroke-linecap: butt; stroke-linejoin: miter; stroke-miterlimit: 10; fill: none; fill-rule: nonzero; opacity: 1;" transform="translate(1.4065934065934016 1.4065934065934016) scale(2.81 2.81)" >
	<path d="M 25.005 90.005 c -0.332 0 -0.664 -0.008 -0.998 -0.023 c -10.867 -0.52 -20.033 -9.318 -20.43 -19.615 c -0.205 -5.31 1.816 -10.451 5.691 -14.478 c 4.144 -4.308 9.882 -6.778 15.741 -6.778 c 3.549 0 7.018 0.916 10.081 2.655 c 3.606 -3.184 8.341 -5.119 13.519 -5.119 c 2.74 0 5.378 0.526 7.863 1.567 l 1.031 -19.069 c 0.175 -2.118 -0.833 -4.091 -2.627 -5.177 l -3.206 -1.942 c -2.164 -1.311 -4.777 -1.591 -7.167 -0.771 c -0.162 0.055 -0.316 0.131 -0.464 0.215 c -1.504 0.851 -3.305 0.878 -4.824 0.076 c -1.519 -0.801 -2.514 -2.302 -2.66 -4.013 c -0.031 -0.364 -0.128 -0.716 -0.288 -1.045 c -2.339 -4.828 -0.666 -10.608 3.894 -13.445 l 2.647 -1.648 c 2.994 -1.863 6.863 -1.853 9.861 0.026 C 73.077 14.22 85.633 39.837 85.436 68.274 c -0.002 0.248 -0.096 0.487 -0.264 0.67 c -12.83 13.959 -28.695 19.472 -47.158 16.392 C 34.343 88.368 29.772 90.005 25.005 90.005 z M 25.009 51.111 c -5.318 0 -10.53 2.246 -14.3 6.165 c -3.494 3.631 -5.318 8.253 -5.134 13.014 c 0.359 9.285 8.67 17.223 18.528 17.693 c 4.761 0.232 9.374 -1.359 12.967 -4.467 c 0.227 -0.197 0.53 -0.28 0.826 -0.23 c 18.075 3.148 32.976 -1.895 45.542 -15.413 c 0.076 -27.595 -12.1 -52.382 -31.833 -64.757 c -2.353 -1.475 -5.391 -1.485 -7.741 -0.022 l -2.647 1.648 c -3.688 2.295 -5.042 6.97 -3.15 10.874 c 0.267 0.55 0.429 1.138 0.481 1.747 c 0.089 1.046 0.672 1.926 1.6 2.414 c 0.914 0.482 1.996 0.466 2.897 -0.042 c 0.285 -0.162 0.547 -0.282 0.809 -0.372 c 2.952 -1.011 6.18 -0.667 8.853 0.952 l 3.205 1.942 c 2.448 1.482 3.822 4.174 3.587 7.025 l -1.11 20.512 c -0.019 0.338 -0.206 0.644 -0.499 0.813 s -0.65 0.178 -0.952 0.025 c -2.596 -1.317 -5.398 -1.984 -8.33 -1.984 c -10.172 0 -18.447 8.275 -18.447 18.447 c 0 0.553 -0.448 1 -1 1 c -0.552 0 -1 -0.447 -1 -1 c 0 -5.346 2.062 -10.22 5.433 -13.867 C 30.959 51.84 28.016 51.111 25.009 51.111 z" style="stroke: none; stroke-width: 1; stroke-dasharray: none; stroke-linecap: butt; stroke-linejoin: miter; stroke-miterlimit: 10; fill: rgb(0,0,0); fill-rule: nonzero; opacity: 1;" transform=" matrix(1 0 0 1 0 0) " stroke-linecap="round" />
</g>
</svg>