<svg xmlns="http://www.w3.org/2000/svg" width="24" height="24" viewBox="0 0 24 24">
  <path fill="currentColor" d="M12.5,22 C7.25329488,22 3,17.7467051 3,12.5 C3,7.25329488 7.25329488,3 12.5,3 C17.7467051,3 22,7.25329488 22,12.5 C22,17.7467051 17.7467051,22 12.5,22 Z M12.5,21 C17.1944204,21 21,17.1944204 21,12.5 C21,7.80557963 17.1944204,4 12.5,4 C7.80557963,4 4,7.80557963 4,12.5 C4,17.1944204 7.80557963,21 12.5,21 Z M8.70710678,12 L17.5,12 C17.7761424,12 18,12.2238576 18,12.5 C18,12.7761424 17.7761424,13 17.5,13 L8.70710678,13 L11.8535534,16.1464466 C12.0488155,16.3417088 12.0488155,16.6582912 11.8535534,16.8535534 C11.6582912,17.0488155 11.3417088,17.0488155 11.1464466,16.8535534 L7.14644661,12.8535534 C6.95118446,12.6582912 6.95118446,12.3417088 7.14644661,12.1464466 L11.1464466,8.14644661 C11.3417088,7.95118446 11.6582912,7.95118446 11.8535534,8.14644661 C12.0488155,8.34170876 12.0488155,8.65829124 11.8535534,8.85355339 L8.70710678,12 Z"/>
</svg>
