<svg id="Gym-Icon-SVG-900489jd" xmlns="http://www.w3.org/2000/svg" xmlns:xlink="http://www.w3.org/1999/xlink" width="65.5" height="29.5" viewBox="0 0 65.5 29.5">
  <defs>
    <clipPath id="clip-path">
      <rect id="Rectangle_59584" data-name="Rectangle 59584" width="65.5" height="32"/>
    </clipPath>
  </defs>
  <g id="Group_61564" data-name="Group 61564" clip-path="url(#clip-path)">
    <path id="Path_136544" data-name="Path 136544" d="M63.75,10.5H59.5V5.75A2.753,2.753,0,0,0,56.752,3h-3a2.706,2.706,0,0,0-1.25.315V2.75A2.753,2.753,0,0,0,49.752,0h-3A2.752,2.752,0,0,0,44,2.75V10.5H21.5V2.75A2.752,2.752,0,0,0,18.748,0h-3A2.752,2.752,0,0,0,13,2.75v.565A2.709,2.709,0,0,0,11.748,3h-3A2.752,2.752,0,0,0,6,5.75V10.5H1.75A1.752,1.752,0,0,0,0,12.25v5A1.752,1.752,0,0,0,1.75,19H6v4.75a2.752,2.752,0,0,0,2.75,2.75h3A2.709,2.709,0,0,0,13,26.185v.565a2.752,2.752,0,0,0,2.75,2.75h3a2.752,2.752,0,0,0,2.75-2.75V19H44v7.75a2.752,2.752,0,0,0,2.75,2.75h3a2.753,2.753,0,0,0,2.75-2.75v-.565a2.706,2.706,0,0,0,1.25.315h3a2.753,2.753,0,0,0,2.75-2.75V19H63.75a1.752,1.752,0,0,0,1.75-1.75v-5a1.752,1.752,0,0,0-1.75-1.75M58,19v4.75A1.251,1.251,0,0,1,56.752,25h-3a1.25,1.25,0,0,1-1.25-1.25v-18a1.251,1.251,0,0,1,1.25-1.25h3A1.252,1.252,0,0,1,58,5.75V19Zm-7,0v7.75A1.251,1.251,0,0,1,49.752,28h-3a1.251,1.251,0,0,1-1.25-1.25v-24a1.252,1.252,0,0,1,1.25-1.25h3A1.252,1.252,0,0,1,51,2.75V19ZM20,12V26.75A1.251,1.251,0,0,1,18.748,28h-3a1.251,1.251,0,0,1-1.25-1.25v-24a1.252,1.252,0,0,1,1.25-1.25h3A1.252,1.252,0,0,1,20,2.75V12ZM7.5,10.5V5.75A1.252,1.252,0,0,1,8.748,4.5h3A1.252,1.252,0,0,1,13,5.75v18A1.251,1.251,0,0,1,11.748,25h-3A1.251,1.251,0,0,1,7.5,23.75V10.5Zm-5.748,7a.25.25,0,0,1-.25-.25v-5A.25.25,0,0,1,1.75,12H6v5.5ZM21.5,12H44v5.5H21.5ZM64,17.25a.25.25,0,0,1-.25.25H59.5V12H63.75a.25.25,0,0,1,.25.25Z"/>
  </g>
</svg>
